<svg version="1.2" xmlns="http://www.w3.org/2000/svg" viewBox="0 0 1080 1080" width="128" height="128">
	<title>Icon_AdvancedNoise</title>
	<style>
		.s0 { fill: #ffffff } 
	</style>
	<path id="AN" class="s0" aria-label="AN"  d="m0.4 847.4q0-21.5 16.1-36.5 16.1-16.1 38.7-16.1 22.5 0 38.6 16.1 16.1 15 16.1 36.5 0 21.5-16.1 37.6-16.1 15-38.6 15-22.6 0-38.7-15-16.1-16.1-16.1-37.6zm0-107.3q0-21.5 16.1-36.5 16.1-16.1 38.7-16.1 22.5 0 38.6 16.1 16.1 15 16.1 36.5 0 22.5-16.1 38.6-16.1 15-38.6 15-22.6 0-38.7-15-16.1-16.1-16.1-38.6zm0-105.2q0-21.5 16.1-36.5 16.1-15 39.8-15 23.6 0 39.7 15 16.1 15 16.1 36.5 0 22.5-16.1 37.5-16.1 15.1-39.7 15.1-23.7 0-39.8-15.1-16.1-15-16.1-37.5zm0-106.3q0-22.5 16.1-38.6 16.1-16.1 39.8-16.1 23.6 0 39.7 16.1 16.1 16.1 16.1 38.6 0 22.6-16.1 38.7-16.1 16.1-39.7 16.1-23.7 0-39.8-16.1-16.1-16.1-16.1-38.7zm0-109.5q0-22.5 15.1-38.6 16.1-16.1 38.6-16.1 22.5 0 37.6 16.1 16.1 16.1 16.1 38.6 0 22.6-16.1 38.7-15.1 16.1-37.6 16.1-22.5 0-38.6-16.1-15.1-16.1-15.1-38.7zm0-107.3q0-21.5 15.1-36.5 16.1-16.1 38.6-16.1 22.5 0 37.6 16.1 16.1 15 16.1 36.5 0 21.5-16.1 37.6-15.1 15-37.6 15-22.5 0-38.6-15-15.1-16.1-15.1-37.6zm116 215.7q0-21.4 15-36.5 15-15 35.4-15 20.4 0 35.4 15 15.1 15.1 15.1 36.5 0 21.5-15.1 36.5-15 15.1-35.4 15.1-20.4 0-35.4-15.1-15-15-15-36.5zm100.9-3.2q0-22.5 15-38.6 16.1-16.1 38.6-16.1 22.6 0 37.6 16.1 16.1 16.1 16.1 38.6 0 22.6-16.1 38.7-15 16.1-37.6 16.1-22.5 0-38.6-16.1-15-16.1-15-38.7zm107.3-1.1q0-21.4 15-37.5 16.1-16.1 38.7-16.1 22.5 0 37.5 16.1 16.1 16.1 16.1 37.5 0 22.6-16.1 38.7-15 16.1-37.5 16.1-22.6 0-38.7-16.1-15-16.1-15-38.7zm-3.2 110.6q0-23.6 16.1-39.7 16.1-16.1 39.7-16.1 22.5 0 38.6 16.1 16.1 16.1 16.1 39.7 0 23.6-16.1 39.7-16.1 16.1-38.6 16.1-23.6 0-39.7-16.1-16.1-16.1-16.1-39.7zm0 107.3q0-21.4 16.1-36.5 16.1-15 39.7-15 23.6 0 39.7 15 16.1 15.1 16.1 36.5 0 22.6-16.1 37.6-16.1 15-39.7 15-23.6 0-39.7-15-16.1-15-16.1-37.6zm0 105.2q0-21.4 16.1-36.5 16.1-16.1 39.7-16.1 23.6 0 39.7 16.1 16.1 15.1 16.1 36.5 0 22.6-16.1 38.7-16.1 15-39.7 15-23.6 0-39.7-15-16.1-16.1-16.1-38.7zm1-429.3q0-21.5 16.1-36.5 16.2-15 38.7-15 22.5 0 38.6 15 16.1 15 16.1 36.5 0 22.5-16.1 37.5-16.1 15.1-38.6 15.1-22.5 0-38.7-15.1-16.1-15-16.1-37.5zm-3.2-105.2q0-22.6 16.1-37.6 17.2-16.1 40.8-16.1 22.6 0 38.7 16.1 17.1 15 17.1 37.6 0 22.5-17.1 38.6-16.1 15.1-38.7 15.1-23.6 0-40.8-15.1-16.1-16.1-16.1-38.6zm-104.1-107.4q0-21.4 15-36.4 15.1-16.1 37.6-16.1 21.5 0 36.5 16.1 15 15 15 36.4 0 22.6-15 38.7-15 15-36.5 15-22.5 0-37.6-15-15-16.1-15-38.7zm-109.5 0q0-21.4 16.1-36.4 16.1-16.1 38.7-16.1 22.5 0 38.6 16.1 16.1 15 16.1 36.4 0 21.5-16.1 37.6-16.1 15-38.6 15-22.6 0-38.7-15-16.1-16.1-16.1-37.6zm431.5-1q0-21.5 16.1-36.5 16.1-15 39.7-15 23.7 0 39.8 15 16.1 15 16.1 36.5 0 22.5-16.1 37.5-16.1 15.1-39.8 15.1-23.6 0-39.7-15.1-16.1-15-16.1-37.5zm0 106.2q0-21.4 16.1-37.5 16.1-16.1 39.7-16.1 23.7 0 39.8 16.1 16.1 16.1 16.1 37.5 0 22.6-16.1 38.7-16.1 16.1-39.8 16.1-23.6 0-39.7-16.1-16.1-16.1-16.1-38.7zm0 107.4q0-21.5 16.1-36.5 16.1-16.1 39.7-16.1 22.6 0 38.7 16.1 16.1 15 16.1 36.5 0 22.5-16.1 38.6-16.1 15-38.7 15-23.6 0-39.7-15-16.1-16.1-16.1-38.6zm0 108.4q0-22.6 16.1-38.7 16.1-16.1 39.7-16.1 22.6 0 38.7 16.1 16.1 16.1 16.1 38.7 0 22.5-16.1 38.6-16.1 16.1-38.7 16.1-23.6 0-39.7-16.1-16.1-16.1-16.1-38.6zm0 107.3q0-22.5 16.1-37.5 16.1-16.1 38.7-16.1 22.5 0 38.6 16.1 16.1 15 16.1 37.5 0 22.6-16.1 38.7-16.1 15-38.6 15-22.6 0-38.7-15-16.1-16.1-16.1-38.7zm0 107.4q0-22.6 16.1-37.6 16.1-16.1 38.7-16.1 22.5 0 38.6 16.1 16.1 15 16.1 37.6 0 22.5-16.1 38.6-16.1 15-38.6 15-22.6 0-38.7-15-16.1-16.1-16.1-38.6zm0 106.2q0-21.4 16.1-36.5 16.1-16.1 38.7-16.1 21.4 0 37.5 16.1 16.1 15.1 16.1 36.5 0 22.6-16.1 38.7-16.1 15-37.5 15-22.6 0-38.7-15-16.1-16.1-16.1-38.7zm114.9-534.5q0-20.4 15-35.4 15-15.1 35.4-15.1 20.4 0 35.4 15.1 15.1 15 15.1 35.4 0 21.5-15.1 36.5-15 15-35.4 15-20.4 0-35.4-15-15-15-15-36.5zm-3.2 106.3q0-22.6 15-38.7 15-16.1 37.6-16.1 21.4 0 36.4 16.1 15.1 16.1 15.1 38.7 0 22.5-15.1 38.6-15 16.1-36.4 16.1-22.6 0-37.6-16.1-15-16.1-15-38.6zm103 105.1q0-22.5 16.1-38.6 16.1-16.1 38.6-16.1 21.5 0 37.6 16.1 16.1 16.1 16.1 38.6 0 22.6-16.1 38.7-16.1 16.1-37.6 16.1-22.5 0-38.6-16.1-16.1-16.1-16.1-38.7zm107.3 108.5q0-22.6 15.1-37.6 16.1-16.1 38.6-16.1 22.5 0 37.6 16.1 16.1 15 16.1 37.6 0 22.5-16.1 38.6-15.1 15-37.6 15-22.5 0-38.6-15-15.1-16.1-15.1-38.6zm1.1 107.3q0-22.5 15-37.6 16.1-16.1 38.7-16.1 21.4 0 36.5 16.1 16.1 15.1 16.1 37.6 0 22.5-16.1 38.6-15.1 15.1-36.5 15.1-22.6 0-38.7-15.1-15-16.1-15-38.6zm107.4 108.4q0-21.5 16.1-36.5 16.1-16.1 38.6-16.1 22.5 0 38.6 16.1 16.1 15 16.1 36.5 0 21.5-16.1 37.6-16.1 15-38.6 15-22.5 0-38.6-15-16.1-16.1-16.1-37.6zm0-107.3q0-21.5 16.1-37.6 16.1-16.1 38.6-16.1 22.5 0 38.6 16.1 16.1 16.1 16.1 37.6 0 22.5-16.1 38.6-16.1 16.1-38.6 16.1-22.5 0-38.6-16.1-16.1-16.1-16.1-38.6zm0-107.4q0-22.5 16.1-37.5 16.1-16.1 39.7-16.1 22.5 0 38.6 16.1 16.1 15 16.1 37.5 0 22.6-16.1 38.7-16.1 15-38.6 15-23.6 0-39.7-15-16.1-16.1-16.1-38.7zm-1.1-108.4q0-22.5 16.1-38.6 16.1-16.1 39.7-16.1 23.6 0 39.7 16.1 16.1 16.1 16.1 38.6 0 22.6-16.1 38.7-16.1 16.1-39.7 16.1-23.6 0-39.7-16.1-16.1-16.1-16.1-38.7zm0-107.3q0-21.5 16.1-36.5 16.1-16.1 39.7-16.1 22.5 0 38.6 16.1 16.1 15 16.1 36.5 0 21.4-16.1 37.5-16.1 15.1-38.6 15.1-23.6 0-39.7-15.1-16.1-16.1-16.1-37.5zm1.1-106.3q0-22.5 16.1-37.6 16.1-16.1 38.6-16.1 22.5 0 38.6 16.1 16.1 15.1 16.1 37.6 0 22.6-16.1 38.7-16.1 15-38.6 15-22.5 0-38.6-15-16.1-16.1-16.1-38.7zm0-106.3q0-21.4 16.1-36.4 16.1-16.1 39.7-16.1 22.5 0 38.6 16.1 16.1 15 16.1 36.4 0 21.5-16.1 37.6-16.1 15-38.6 15-23.6 0-39.7-15-16.1-16.1-16.1-37.6z"/>
</svg>